<mxfile host="app.diagrams.net" agent="Mozilla/5.0 (Windows NT 10.0; Win64; x64) AppleWebKit/537.36 (KHTML, like Gecko) Chrome/129.0.0.0 Safari/537.36" version="24.8.0">
  <diagram name="Page-1" id="9f46799a-70d6-7492-0946-bef42562c5a5">
    <mxGraphModel dx="2580" dy="1894" grid="1" gridSize="10" guides="1" tooltips="1" connect="1" arrows="1" fold="1" page="1" pageScale="1" pageWidth="1100" pageHeight="850" background="none" math="0" shadow="0">
      <root>
        <mxCell id="0" />
        <mxCell id="1" parent="0" />
        <mxCell id="78961159f06e98e8-108" value="Utilisateur" style="swimlane;html=1;fontStyle=1;align=center;verticalAlign=top;childLayout=stackLayout;horizontal=1;startSize=26;horizontalStack=0;resizeParent=1;resizeLast=0;collapsible=1;marginBottom=0;swimlaneFillColor=#ffffff;rounded=0;shadow=0;comic=0;labelBackgroundColor=none;strokeWidth=1;fillColor=none;fontFamily=Verdana;fontSize=12" parent="1" vertex="1">
          <mxGeometry x="20" y="-830" width="160" height="150" as="geometry" />
        </mxCell>
        <mxCell id="78961159f06e98e8-109" value="+ field: type" style="text;html=1;strokeColor=none;fillColor=none;align=left;verticalAlign=top;spacingLeft=4;spacingRight=4;whiteSpace=wrap;overflow=hidden;rotatable=0;points=[[0,0.5],[1,0.5]];portConstraint=eastwest;" parent="78961159f06e98e8-108" vertex="1">
          <mxGeometry y="26" width="160" height="4" as="geometry" />
        </mxCell>
        <mxCell id="78961159f06e98e8-110" value="+ Utilisateur_ID" style="text;html=1;strokeColor=none;fillColor=none;align=left;verticalAlign=top;spacingLeft=4;spacingRight=4;whiteSpace=wrap;overflow=hidden;rotatable=0;points=[[0,0.5],[1,0.5]];portConstraint=eastwest;" parent="78961159f06e98e8-108" vertex="1">
          <mxGeometry y="30" width="160" height="26" as="geometry" />
        </mxCell>
        <mxCell id="78961159f06e98e8-117" value="+ Prenom" style="text;html=1;strokeColor=none;fillColor=none;align=left;verticalAlign=top;spacingLeft=4;spacingRight=4;whiteSpace=wrap;overflow=hidden;rotatable=0;points=[[0,0.5],[1,0.5]];portConstraint=eastwest;" parent="78961159f06e98e8-108" vertex="1">
          <mxGeometry y="56" width="160" height="20" as="geometry" />
        </mxCell>
        <mxCell id="78961159f06e98e8-120" value="+ Email" style="text;html=1;strokeColor=none;fillColor=none;align=left;verticalAlign=top;spacingLeft=4;spacingRight=4;whiteSpace=wrap;overflow=hidden;rotatable=0;points=[[0,0.5],[1,0.5]];portConstraint=eastwest;" parent="78961159f06e98e8-108" vertex="1">
          <mxGeometry y="76" width="160" height="26" as="geometry" />
        </mxCell>
        <mxCell id="5d9QkIxnch06945Fq6pi-2" value="+ Numéro de téléphone" style="text;html=1;strokeColor=none;fillColor=none;align=left;verticalAlign=top;spacingLeft=4;spacingRight=4;whiteSpace=wrap;overflow=hidden;rotatable=0;points=[[0,0.5],[1,0.5]];portConstraint=eastwest;" parent="78961159f06e98e8-108" vertex="1">
          <mxGeometry y="102" width="160" height="26" as="geometry" />
        </mxCell>
        <mxCell id="c16AjR8w76n8XGQt4jYf-5" value="&amp;nbsp; + Nom&amp;nbsp;" style="text;whiteSpace=wrap;html=1;" vertex="1" parent="78961159f06e98e8-108">
          <mxGeometry y="128" width="160" height="22" as="geometry" />
        </mxCell>
        <mxCell id="5d9QkIxnch06945Fq6pi-3" value="Adresse&amp;nbsp;" style="swimlane;html=1;fontStyle=1;align=center;verticalAlign=top;childLayout=stackLayout;horizontal=1;startSize=26;horizontalStack=0;resizeParent=1;resizeLast=0;collapsible=1;marginBottom=0;swimlaneFillColor=#ffffff;rounded=0;shadow=0;comic=0;labelBackgroundColor=none;strokeWidth=1;fillColor=none;fontFamily=Verdana;fontSize=12" parent="1" vertex="1">
          <mxGeometry x="1350" y="-550.0000000000002" width="160" height="147" as="geometry" />
        </mxCell>
        <mxCell id="5d9QkIxnch06945Fq6pi-4" value="+ field: type" style="text;html=1;strokeColor=none;fillColor=none;align=left;verticalAlign=top;spacingLeft=4;spacingRight=4;whiteSpace=wrap;overflow=hidden;rotatable=0;points=[[0,0.5],[1,0.5]];portConstraint=eastwest;" parent="5d9QkIxnch06945Fq6pi-3" vertex="1">
          <mxGeometry y="26" width="160" height="4" as="geometry" />
        </mxCell>
        <mxCell id="5d9QkIxnch06945Fq6pi-5" value="+ adresse&amp;nbsp;" style="text;html=1;strokeColor=none;fillColor=none;align=left;verticalAlign=top;spacingLeft=4;spacingRight=4;whiteSpace=wrap;overflow=hidden;rotatable=0;points=[[0,0.5],[1,0.5]];portConstraint=eastwest;" parent="5d9QkIxnch06945Fq6pi-3" vertex="1">
          <mxGeometry y="30" width="160" height="50" as="geometry" />
        </mxCell>
        <mxCell id="5d9QkIxnch06945Fq6pi-9" value="Produit&amp;nbsp;" style="swimlane;html=1;fontStyle=1;align=center;verticalAlign=top;childLayout=stackLayout;horizontal=1;startSize=26;horizontalStack=0;resizeParent=1;resizeLast=0;collapsible=1;marginBottom=0;swimlaneFillColor=#ffffff;rounded=0;shadow=0;comic=0;labelBackgroundColor=none;strokeWidth=1;fillColor=none;fontFamily=Verdana;fontSize=12" parent="1" vertex="1">
          <mxGeometry x="20" y="-610" width="160" height="190" as="geometry" />
        </mxCell>
        <mxCell id="5d9QkIxnch06945Fq6pi-10" value="+ field: type" style="text;html=1;strokeColor=none;fillColor=none;align=left;verticalAlign=top;spacingLeft=4;spacingRight=4;whiteSpace=wrap;overflow=hidden;rotatable=0;points=[[0,0.5],[1,0.5]];portConstraint=eastwest;" parent="5d9QkIxnch06945Fq6pi-9" vertex="1">
          <mxGeometry y="26" width="160" height="4" as="geometry" />
        </mxCell>
        <mxCell id="c16AjR8w76n8XGQt4jYf-7" value="&lt;div style=&quot;forced-color-adjust: none;&quot;&gt;&amp;nbsp;+ Produit_ID&amp;nbsp;&lt;/div&gt;&lt;div style=&quot;forced-color-adjust: none;&quot;&gt;&lt;br&gt;&lt;/div&gt;" style="text;whiteSpace=wrap;html=1;" vertex="1" parent="5d9QkIxnch06945Fq6pi-9">
          <mxGeometry y="30" width="160" height="20" as="geometry" />
        </mxCell>
        <mxCell id="5d9QkIxnch06945Fq6pi-14" value="+ ordinateur portable&amp;nbsp;&lt;div&gt;&lt;br&gt;&lt;/div&gt;" style="text;html=1;strokeColor=none;fillColor=none;align=left;verticalAlign=top;spacingLeft=4;spacingRight=4;whiteSpace=wrap;overflow=hidden;rotatable=0;points=[[0,0.5],[1,0.5]];portConstraint=eastwest;" parent="5d9QkIxnch06945Fq6pi-9" vertex="1">
          <mxGeometry y="50" width="160" height="26" as="geometry" />
        </mxCell>
        <mxCell id="c16AjR8w76n8XGQt4jYf-1" value="&lt;div style=&quot;forced-color-adjust: none;&quot;&gt;&amp;nbsp;+ ordinateur fix&amp;nbsp;&lt;/div&gt;" style="text;whiteSpace=wrap;html=1;" vertex="1" parent="5d9QkIxnch06945Fq6pi-9">
          <mxGeometry y="76" width="160" height="20" as="geometry" />
        </mxCell>
        <mxCell id="c16AjR8w76n8XGQt4jYf-2" value="&lt;div style=&quot;forced-color-adjust: none;&quot;&gt;&amp;nbsp;+ écran&amp;nbsp;&lt;/div&gt;" style="text;whiteSpace=wrap;html=1;" vertex="1" parent="5d9QkIxnch06945Fq6pi-9">
          <mxGeometry y="96" width="160" height="20" as="geometry" />
        </mxCell>
        <mxCell id="c16AjR8w76n8XGQt4jYf-3" value="&lt;div style=&quot;forced-color-adjust: none;&quot;&gt;&amp;nbsp;+ souris&lt;/div&gt;" style="text;whiteSpace=wrap;html=1;" vertex="1" parent="5d9QkIxnch06945Fq6pi-9">
          <mxGeometry y="116" width="160" height="20" as="geometry" />
        </mxCell>
        <mxCell id="c16AjR8w76n8XGQt4jYf-4" value="&lt;div style=&quot;forced-color-adjust: none;&quot;&gt;&amp;nbsp;+ clavier&amp;nbsp;&lt;/div&gt;&lt;div style=&quot;forced-color-adjust: none;&quot;&gt;&lt;br&gt;&lt;/div&gt;" style="text;whiteSpace=wrap;html=1;" vertex="1" parent="5d9QkIxnch06945Fq6pi-9">
          <mxGeometry y="136" width="160" height="20" as="geometry" />
        </mxCell>
        <mxCell id="5d9QkIxnch06945Fq6pi-27" value="Factures" style="swimlane;html=1;fontStyle=1;align=center;verticalAlign=top;childLayout=stackLayout;horizontal=1;startSize=26;horizontalStack=0;resizeParent=1;resizeLast=0;collapsible=1;marginBottom=0;swimlaneFillColor=#ffffff;rounded=0;shadow=0;comic=0;labelBackgroundColor=none;strokeWidth=1;fillColor=none;fontFamily=Verdana;fontSize=12" parent="1" vertex="1">
          <mxGeometry x="560" y="-790.0000000000002" width="160" height="147" as="geometry" />
        </mxCell>
        <mxCell id="5d9QkIxnch06945Fq6pi-28" value="&amp;nbsp;+ Facture_ID&amp;nbsp;" style="text;html=1;strokeColor=none;fillColor=none;align=left;verticalAlign=top;spacingLeft=4;spacingRight=4;whiteSpace=wrap;overflow=hidden;rotatable=0;points=[[0,0.5],[1,0.5]];portConstraint=eastwest;" parent="5d9QkIxnch06945Fq6pi-27" vertex="1">
          <mxGeometry y="26" width="160" height="24" as="geometry" />
        </mxCell>
        <mxCell id="c16AjR8w76n8XGQt4jYf-45" value="&amp;nbsp; + Commande_ID&amp;nbsp;" style="text;whiteSpace=wrap;html=1;" vertex="1" parent="5d9QkIxnch06945Fq6pi-27">
          <mxGeometry y="50" width="160" height="24" as="geometry" />
        </mxCell>
        <mxCell id="c16AjR8w76n8XGQt4jYf-46" value="&amp;nbsp; + Total" style="text;whiteSpace=wrap;html=1;" vertex="1" parent="5d9QkIxnch06945Fq6pi-27">
          <mxGeometry y="74" width="160" height="26" as="geometry" />
        </mxCell>
        <mxCell id="5d9QkIxnch06945Fq6pi-34" value="Photo" style="swimlane;html=1;fontStyle=1;align=center;verticalAlign=top;childLayout=stackLayout;horizontal=1;startSize=26;horizontalStack=0;resizeParent=1;resizeLast=0;collapsible=1;marginBottom=0;swimlaneFillColor=#ffffff;rounded=0;shadow=0;comic=0;labelBackgroundColor=none;strokeWidth=1;fillColor=none;fontFamily=Verdana;fontSize=12" parent="1" vertex="1">
          <mxGeometry x="1240" y="-403.0000000000002" width="160" height="147" as="geometry" />
        </mxCell>
        <mxCell id="5d9QkIxnch06945Fq6pi-35" value="+ field: type" style="text;html=1;strokeColor=none;fillColor=none;align=left;verticalAlign=top;spacingLeft=4;spacingRight=4;whiteSpace=wrap;overflow=hidden;rotatable=0;points=[[0,0.5],[1,0.5]];portConstraint=eastwest;" parent="5d9QkIxnch06945Fq6pi-34" vertex="1">
          <mxGeometry y="26" width="160" height="4" as="geometry" />
        </mxCell>
        <mxCell id="5d9QkIxnch06945Fq6pi-40" value="Tarif Produit&amp;nbsp;" style="swimlane;html=1;fontStyle=1;align=center;verticalAlign=top;childLayout=stackLayout;horizontal=1;startSize=26;horizontalStack=0;resizeParent=1;resizeLast=0;collapsible=1;marginBottom=0;swimlaneFillColor=#ffffff;rounded=0;shadow=0;comic=0;labelBackgroundColor=none;strokeWidth=1;fillColor=none;fontFamily=Verdana;fontSize=12" parent="1" vertex="1">
          <mxGeometry x="20" y="-290.0000000000002" width="160" height="147" as="geometry" />
        </mxCell>
        <mxCell id="5d9QkIxnch06945Fq6pi-41" value="&amp;nbsp;+ Tarif_produit_ID" style="text;html=1;strokeColor=none;fillColor=none;align=left;verticalAlign=top;spacingLeft=4;spacingRight=4;whiteSpace=wrap;overflow=hidden;rotatable=0;points=[[0,0.5],[1,0.5]];portConstraint=eastwest;" parent="5d9QkIxnch06945Fq6pi-40" vertex="1">
          <mxGeometry y="26" width="160" height="24" as="geometry" />
        </mxCell>
        <mxCell id="c16AjR8w76n8XGQt4jYf-47" value="&amp;nbsp;+ Produit_ID" style="text;html=1;strokeColor=none;fillColor=none;align=left;verticalAlign=top;spacingLeft=4;spacingRight=4;whiteSpace=wrap;overflow=hidden;rotatable=0;points=[[0,0.5],[1,0.5]];portConstraint=eastwest;" vertex="1" parent="5d9QkIxnch06945Fq6pi-40">
          <mxGeometry y="50" width="160" height="24" as="geometry" />
        </mxCell>
        <mxCell id="5d9QkIxnch06945Fq6pi-55" value="Paiment" style="swimlane;html=1;fontStyle=1;align=center;verticalAlign=top;childLayout=stackLayout;horizontal=1;startSize=26;horizontalStack=0;resizeParent=1;resizeLast=0;collapsible=1;marginBottom=0;swimlaneFillColor=#ffffff;rounded=0;shadow=0;comic=0;labelBackgroundColor=none;strokeWidth=1;fillColor=none;fontFamily=Verdana;fontSize=12" parent="1" vertex="1">
          <mxGeometry x="1600" y="-360.0000000000002" width="160" height="147" as="geometry" />
        </mxCell>
        <mxCell id="5d9QkIxnch06945Fq6pi-56" value="+ field: type" style="text;html=1;strokeColor=none;fillColor=none;align=left;verticalAlign=top;spacingLeft=4;spacingRight=4;whiteSpace=wrap;overflow=hidden;rotatable=0;points=[[0,0.5],[1,0.5]];portConstraint=eastwest;" parent="5d9QkIxnch06945Fq6pi-55" vertex="1">
          <mxGeometry y="26" width="160" height="4" as="geometry" />
        </mxCell>
        <mxCell id="5d9QkIxnch06945Fq6pi-57" value="+ IBAN" style="text;html=1;strokeColor=none;fillColor=none;align=left;verticalAlign=top;spacingLeft=4;spacingRight=4;whiteSpace=wrap;overflow=hidden;rotatable=0;points=[[0,0.5],[1,0.5]];portConstraint=eastwest;" parent="5d9QkIxnch06945Fq6pi-55" vertex="1">
          <mxGeometry y="30" width="160" height="26" as="geometry" />
        </mxCell>
        <mxCell id="5d9QkIxnch06945Fq6pi-58" value="+ Numéro de carte" style="text;html=1;strokeColor=none;fillColor=none;align=left;verticalAlign=top;spacingLeft=4;spacingRight=4;whiteSpace=wrap;overflow=hidden;rotatable=0;points=[[0,0.5],[1,0.5]];portConstraint=eastwest;" parent="5d9QkIxnch06945Fq6pi-55" vertex="1">
          <mxGeometry y="56" width="160" height="20" as="geometry" />
        </mxCell>
        <mxCell id="5d9QkIxnch06945Fq6pi-59" value="+ Apple Pay" style="text;html=1;strokeColor=none;fillColor=none;align=left;verticalAlign=top;spacingLeft=4;spacingRight=4;whiteSpace=wrap;overflow=hidden;rotatable=0;points=[[0,0.5],[1,0.5]];portConstraint=eastwest;" parent="5d9QkIxnch06945Fq6pi-55" vertex="1">
          <mxGeometry y="76" width="160" height="26" as="geometry" />
        </mxCell>
        <mxCell id="c16AjR8w76n8XGQt4jYf-21" style="edgeStyle=orthogonalEdgeStyle;rounded=0;orthogonalLoop=1;jettySize=auto;html=1;exitX=0.5;exitY=1;exitDx=0;exitDy=0;elbow=vertical;" edge="1" parent="1" source="c16AjR8w76n8XGQt4jYf-13">
          <mxGeometry relative="1" as="geometry">
            <mxPoint x="420" y="-681" as="targetPoint" />
          </mxGeometry>
        </mxCell>
        <mxCell id="c16AjR8w76n8XGQt4jYf-13" value="Commande" style="swimlane;html=1;fontStyle=1;align=center;verticalAlign=top;childLayout=stackLayout;horizontal=1;startSize=26;horizontalStack=0;resizeParent=1;resizeLast=0;collapsible=1;marginBottom=0;swimlaneFillColor=#ffffff;rounded=0;shadow=0;comic=0;labelBackgroundColor=none;strokeWidth=1;fillColor=none;fontFamily=Verdana;fontSize=12" vertex="1" parent="1">
          <mxGeometry x="340" y="-821" width="160" height="140" as="geometry" />
        </mxCell>
        <mxCell id="c16AjR8w76n8XGQt4jYf-14" value="+ field: type" style="text;html=1;strokeColor=none;fillColor=none;align=left;verticalAlign=top;spacingLeft=4;spacingRight=4;whiteSpace=wrap;overflow=hidden;rotatable=0;points=[[0,0.5],[1,0.5]];portConstraint=eastwest;" vertex="1" parent="c16AjR8w76n8XGQt4jYf-13">
          <mxGeometry y="26" width="160" height="4" as="geometry" />
        </mxCell>
        <mxCell id="c16AjR8w76n8XGQt4jYf-15" value="&amp;nbsp;+ Commande_ID" style="text;html=1;strokeColor=none;fillColor=none;align=left;verticalAlign=top;spacingLeft=4;spacingRight=4;whiteSpace=wrap;overflow=hidden;rotatable=0;points=[[0,0.5],[1,0.5]];portConstraint=eastwest;" vertex="1" parent="c16AjR8w76n8XGQt4jYf-13">
          <mxGeometry y="30" width="160" height="20" as="geometry" />
        </mxCell>
        <mxCell id="c16AjR8w76n8XGQt4jYf-23" value="&amp;nbsp; &amp;nbsp;+ Panier_ID" style="text;whiteSpace=wrap;html=1;" vertex="1" parent="c16AjR8w76n8XGQt4jYf-13">
          <mxGeometry y="50" width="160" height="20" as="geometry" />
        </mxCell>
        <mxCell id="c16AjR8w76n8XGQt4jYf-27" style="edgeStyle=orthogonalEdgeStyle;rounded=0;orthogonalLoop=1;jettySize=auto;html=1;exitX=0.5;exitY=1;exitDx=0;exitDy=0;elbow=vertical;" edge="1" parent="1" source="c16AjR8w76n8XGQt4jYf-28">
          <mxGeometry relative="1" as="geometry">
            <mxPoint x="420" y="-480" as="targetPoint" />
          </mxGeometry>
        </mxCell>
        <mxCell id="c16AjR8w76n8XGQt4jYf-28" value="Panier" style="swimlane;html=1;fontStyle=1;align=center;verticalAlign=top;childLayout=stackLayout;horizontal=1;startSize=26;horizontalStack=0;resizeParent=1;resizeLast=0;collapsible=1;marginBottom=0;swimlaneFillColor=#ffffff;rounded=0;shadow=0;comic=0;labelBackgroundColor=none;strokeWidth=1;fillColor=none;fontFamily=Verdana;fontSize=12" vertex="1" parent="1">
          <mxGeometry x="340" y="-620" width="160" height="140" as="geometry" />
        </mxCell>
        <mxCell id="c16AjR8w76n8XGQt4jYf-29" value="+ field: type" style="text;html=1;strokeColor=none;fillColor=none;align=left;verticalAlign=top;spacingLeft=4;spacingRight=4;whiteSpace=wrap;overflow=hidden;rotatable=0;points=[[0,0.5],[1,0.5]];portConstraint=eastwest;" vertex="1" parent="c16AjR8w76n8XGQt4jYf-28">
          <mxGeometry y="26" width="160" height="4" as="geometry" />
        </mxCell>
        <mxCell id="c16AjR8w76n8XGQt4jYf-30" value="&amp;nbsp;+ Panier_ID" style="text;html=1;strokeColor=none;fillColor=none;align=left;verticalAlign=top;spacingLeft=4;spacingRight=4;whiteSpace=wrap;overflow=hidden;rotatable=0;points=[[0,0.5],[1,0.5]];portConstraint=eastwest;" vertex="1" parent="c16AjR8w76n8XGQt4jYf-28">
          <mxGeometry y="30" width="160" height="26" as="geometry" />
        </mxCell>
        <mxCell id="c16AjR8w76n8XGQt4jYf-32" value="&amp;nbsp;+ Utilisateur_ID" style="text;html=1;strokeColor=none;fillColor=none;align=left;verticalAlign=top;spacingLeft=4;spacingRight=4;whiteSpace=wrap;overflow=hidden;rotatable=0;points=[[0,0.5],[1,0.5]];portConstraint=eastwest;" vertex="1" parent="c16AjR8w76n8XGQt4jYf-28">
          <mxGeometry y="56" width="160" height="20" as="geometry" />
        </mxCell>
        <mxCell id="c16AjR8w76n8XGQt4jYf-34" style="edgeStyle=orthogonalEdgeStyle;rounded=0;orthogonalLoop=1;jettySize=auto;html=1;exitX=0.5;exitY=1;exitDx=0;exitDy=0;elbow=vertical;" edge="1" parent="1" source="c16AjR8w76n8XGQt4jYf-35">
          <mxGeometry relative="1" as="geometry">
            <mxPoint x="370" y="-290" as="targetPoint" />
          </mxGeometry>
        </mxCell>
        <mxCell id="c16AjR8w76n8XGQt4jYf-35" value="Produit dans le Panier" style="swimlane;html=1;fontStyle=1;align=center;verticalAlign=top;childLayout=stackLayout;horizontal=1;startSize=26;horizontalStack=0;resizeParent=1;resizeLast=0;collapsible=1;marginBottom=0;swimlaneFillColor=#ffffff;rounded=0;shadow=0;comic=0;labelBackgroundColor=none;strokeWidth=1;fillColor=none;fontFamily=Verdana;fontSize=12" vertex="1" parent="1">
          <mxGeometry x="290" y="-430" width="160" height="160" as="geometry" />
        </mxCell>
        <mxCell id="c16AjR8w76n8XGQt4jYf-36" value="+ field: type" style="text;html=1;strokeColor=none;fillColor=none;align=left;verticalAlign=top;spacingLeft=4;spacingRight=4;whiteSpace=wrap;overflow=hidden;rotatable=0;points=[[0,0.5],[1,0.5]];portConstraint=eastwest;" vertex="1" parent="c16AjR8w76n8XGQt4jYf-35">
          <mxGeometry y="26" width="160" height="4" as="geometry" />
        </mxCell>
        <mxCell id="c16AjR8w76n8XGQt4jYf-37" value="&amp;nbsp;+ Panier_produit_ID" style="text;html=1;strokeColor=none;fillColor=none;align=left;verticalAlign=top;spacingLeft=4;spacingRight=4;whiteSpace=wrap;overflow=hidden;rotatable=0;points=[[0,0.5],[1,0.5]];portConstraint=eastwest;" vertex="1" parent="c16AjR8w76n8XGQt4jYf-35">
          <mxGeometry y="30" width="160" height="26" as="geometry" />
        </mxCell>
        <mxCell id="c16AjR8w76n8XGQt4jYf-38" value="&amp;nbsp;+ Produit_ID" style="text;html=1;strokeColor=none;fillColor=none;align=left;verticalAlign=top;spacingLeft=4;spacingRight=4;whiteSpace=wrap;overflow=hidden;rotatable=0;points=[[0,0.5],[1,0.5]];portConstraint=eastwest;" vertex="1" parent="c16AjR8w76n8XGQt4jYf-35">
          <mxGeometry y="56" width="160" height="20" as="geometry" />
        </mxCell>
        <mxCell id="c16AjR8w76n8XGQt4jYf-39" value="&amp;nbsp;+ Panier_ID" style="text;html=1;strokeColor=none;fillColor=none;align=left;verticalAlign=top;spacingLeft=4;spacingRight=4;whiteSpace=wrap;overflow=hidden;rotatable=0;points=[[0,0.5],[1,0.5]];portConstraint=eastwest;" vertex="1" parent="c16AjR8w76n8XGQt4jYf-35">
          <mxGeometry y="76" width="160" height="20" as="geometry" />
        </mxCell>
        <mxCell id="c16AjR8w76n8XGQt4jYf-41" value="&lt;span style=&quot;color: rgb(0, 0, 0); font-family: Helvetica; font-size: 12px; font-style: normal; font-variant-ligatures: normal; font-variant-caps: normal; font-weight: 400; letter-spacing: normal; orphans: 2; text-align: left; text-indent: 0px; text-transform: none; widows: 2; word-spacing: 0px; -webkit-text-stroke-width: 0px; white-space: normal; background-color: rgb(251, 251, 251); text-decoration-thickness: initial; text-decoration-style: initial; text-decoration-color: initial; display: inline !important; float: none;&quot;&gt;&amp;nbsp;+ Tarif_produit_ID&lt;/span&gt;" style="text;whiteSpace=wrap;html=1;" vertex="1" parent="c16AjR8w76n8XGQt4jYf-35">
          <mxGeometry y="96" width="160" height="24" as="geometry" />
        </mxCell>
        <mxCell id="c16AjR8w76n8XGQt4jYf-44" value="&amp;nbsp; + Quantité" style="text;whiteSpace=wrap;html=1;" vertex="1" parent="c16AjR8w76n8XGQt4jYf-35">
          <mxGeometry y="120" width="160" height="40" as="geometry" />
        </mxCell>
      </root>
    </mxGraphModel>
  </diagram>
</mxfile>
